<?xml version="1.0" encoding="UTF-8"?>
<svg xmlns="http://www.w3.org/2000/svg" viewBox="0 0 256 256" role="img" aria-labelledby="title desc">
  <title id="title">SonicTwin WaveMark</title>
  <desc id="desc">A circular logo with layered waveforms inside, in a purple-to-cyan gradient.</desc>
  <defs>
    <linearGradient id="bgGrad" x1="0%" y1="0%" x2="100%" y2="100%">
      <stop offset="0%" stop-color="#8B5CF6"/>
      <stop offset="100%" stop-color="#06B6D4"/>
    </linearGradient>
    <linearGradient id="waveGrad" x1="0%" y1="0%" x2="100%" y2="0%">
      <stop offset="0%" stop-color="#FFFFFF" stop-opacity="0.95"/>
      <stop offset="100%" stop-color="#E5E7EB" stop-opacity="0.95"/>
    </linearGradient>
    <filter id="softGlow" x="-30%" y="-30%" width="160%" height="160%">
      <feGaussianBlur stdDeviation="6" result="blur"/>
      <feMerge>
        <feMergeNode in="blur"/>
        <feMergeNode in="SourceGraphic"/>
      </feMerge>
    </filter>
    <clipPath id="circleClip">
      <circle cx="128" cy="128" r="104"/>
    </clipPath>
  </defs>

  <!-- Background circle with gradient and subtle shadow -->
  <g filter="url(#softGlow)">
    <circle cx="128" cy="128" r="110" fill="#0F172A" opacity="0.08"/>
    <circle cx="128" cy="128" r="104" fill="url(#bgGrad)"/>
  </g>

  <!-- Wave shapes -->
  <g clip-path="url(#circleClip)" fill="none" stroke-linecap="round" stroke-linejoin="round" stroke-width="10">
    <!-- Top wave -->
    <path d="M 32 98
             C 60 78, 96 78, 124 96
             C 152 114, 188 114, 224 96" stroke="url(#waveGrad)"/>
    <!-- Middle wave (slightly thicker) -->
    <path d="M 32 128
             C 60 108, 96 108, 124 126
             C 152 144, 188 144, 224 126" stroke="url(#waveGrad)" stroke-width="12"/>
    <!-- Bottom wave -->
    <path d="M 32 158
             C 60 138, 96 138, 124 156
             C 152 174, 188 174, 224 156" stroke="url(#waveGrad)"/>
  </g>

  <!-- Optional ring -->
  <circle cx="128" cy="128" r="104" fill="none" stroke="rgba(255,255,255,0.18)" stroke-width="2"/>
</svg>
